<?xml version="1.0" encoding="utf-8"?>
<!-- Generator: Adobe Illustrator 16.0.0, SVG Export Plug-In . SVG Version: 6.00 Build 0)  -->
<!DOCTYPE svg PUBLIC "-//W3C//DTD SVG 1.1//EN" "http://www.w3.org/Graphics/SVG/1.1/DTD/svg11.dtd">
<svg version="1.1" id="Calque_1" xmlns="http://www.w3.org/2000/svg" xmlns:xlink="http://www.w3.org/1999/xlink" x="0px" y="0px"
	 width="444px" height="100px" viewBox="-172.5 55 444 100" enable-background="new -172.5 55 444 100" xml:space="preserve">
<g>
	<g enable-background="new    ">
		<path fill="#361A13" d="M152.069,143.565h8.016v3.454h-12.577v-1.424c0-0.967,0.163-1.835,0.488-2.604
			c0.325-0.77,0.734-1.459,1.226-2.07c0.492-0.61,1.03-1.151,1.615-1.621c0.584-0.471,1.141-0.895,1.667-1.272
			c0.555-0.396,1.039-0.773,1.457-1.134s0.77-0.719,1.055-1.074c0.285-0.356,0.499-0.717,0.64-1.081
			c0.141-0.365,0.211-0.754,0.211-1.167c0-0.809-0.229-1.419-0.686-1.832s-1.155-0.62-2.097-0.62c-1.625,0-3.181,0.646-4.667,1.938
			v-3.666c1.644-1.063,3.498-1.595,5.563-1.595c0.959,0,1.817,0.125,2.578,0.376c0.76,0.25,1.404,0.608,1.932,1.074
			s0.93,1.03,1.205,1.694c0.277,0.663,0.416,1.403,0.416,2.222c0,0.869-0.135,1.644-0.402,2.32s-0.624,1.291-1.068,1.846
			c-0.443,0.553-0.955,1.061-1.535,1.522c-0.58,0.461-1.182,0.907-1.807,1.338c-0.422,0.299-0.828,0.596-1.219,0.89
			c-0.392,0.295-0.736,0.585-1.035,0.87c-0.299,0.286-0.536,0.565-0.712,0.837C152.157,143.061,152.069,143.319,152.069,143.565z"/>
		<path fill="#361A13" d="M176.366,130.514c-0.844,1.521-1.6,2.946-2.268,4.278c-0.668,1.331-1.256,2.646-1.766,3.941
			c-0.511,1.297-0.945,2.615-1.306,3.955c-0.36,1.341-0.654,2.784-0.883,4.331h-4.352c0.246-1.468,0.572-2.883,0.977-4.245
			s0.871-2.683,1.404-3.962c0.531-1.278,1.119-2.524,1.766-3.737s1.33-2.399,2.051-3.56h-8.781v-3.401h13.157V130.514z"/>
		<path fill="#361A13" d="M185.134,147.35c-4.5,0-6.75-3.16-6.75-9.479c0-3.278,0.608-5.776,1.826-7.495
			c1.217-1.718,2.981-2.577,5.293-2.577c4.395,0,6.592,3.213,6.592,9.638c0,3.199-0.6,5.651-1.799,7.355
			C189.095,146.497,187.375,147.35,185.134,147.35z M185.318,130.975c-1.802,0-2.702,2.264-2.702,6.79
			c0,4.263,0.883,6.394,2.649,6.394c1.723,0,2.584-2.196,2.584-6.592C187.85,133.173,187.006,130.975,185.318,130.975z"/>
		<path fill="#361A13" d="M207.335,136.657c0,1.679-0.185,3.18-0.554,4.502c-0.369,1.323-0.907,2.441-1.614,3.355
			c-0.709,0.914-1.572,1.615-2.592,2.103c-1.02,0.488-2.175,0.732-3.467,0.732c-1.547,0-2.879-0.247-3.994-0.738v-3.428
			c0.992,0.65,2.188,0.975,3.586,0.975c1.432,0,2.553-0.487,3.361-1.463s1.217-2.387,1.227-4.232l-0.08-0.025
			c-0.834,1.238-2.104,1.858-3.81,1.858c-0.773,0-1.487-0.146-2.142-0.435c-0.656-0.291-1.223-0.692-1.701-1.207
			c-0.479-0.514-0.854-1.127-1.121-1.839s-0.402-1.494-0.402-2.347c0-0.993,0.163-1.898,0.488-2.716s0.779-1.521,1.365-2.109
			c0.584-0.589,1.285-1.044,2.102-1.364c0.818-0.321,1.723-0.481,2.717-0.481c1.027,0,1.951,0.2,2.768,0.6
			c0.818,0.4,1.514,0.979,2.09,1.733c0.576,0.757,1.016,1.684,1.318,2.782S207.335,135.26,207.335,136.657z M203.13,134.442
			c0-0.483-0.063-0.938-0.186-1.364c-0.123-0.427-0.294-0.793-0.514-1.102c-0.22-0.307-0.488-0.551-0.805-0.731
			c-0.316-0.18-0.663-0.271-1.041-0.271c-0.36,0-0.691,0.08-0.996,0.238c-0.303,0.158-0.564,0.375-0.783,0.652
			c-0.221,0.276-0.392,0.608-0.515,0.995s-0.185,0.804-0.185,1.253c0,0.492,0.062,0.929,0.185,1.312
			c0.123,0.382,0.296,0.705,0.521,0.969s0.494,0.464,0.811,0.6c0.316,0.137,0.668,0.204,1.055,0.204
			c0.369,0,0.703-0.072,1.002-0.217c0.299-0.146,0.557-0.341,0.771-0.587s0.383-0.536,0.502-0.87
			C203.069,135.189,203.13,134.829,203.13,134.442z"/>
		<path fill="#361A13" d="M228.97,147.02h-3.942v-1.938h-0.053c-0.905,1.512-2.245,2.268-4.021,2.268
			c-1.311,0-2.341-0.372-3.092-1.114c-0.752-0.743-1.127-1.733-1.127-2.974c0-2.618,1.551-4.13,4.653-4.535l3.665-0.487
			c0-1.477-0.8-2.215-2.399-2.215c-1.608,0-3.138,0.479-4.588,1.437v-3.137c0.58-0.299,1.373-0.563,2.38-0.791
			c1.006-0.229,1.922-0.344,2.748-0.344c3.85,0,5.775,1.921,5.775,5.762V147.02z M225.054,141.535v-0.91l-2.452,0.316
			c-1.354,0.177-2.03,0.787-2.03,1.833c0,0.475,0.165,0.863,0.494,1.167c0.33,0.303,0.775,0.455,1.338,0.455
			c0.783,0,1.42-0.271,1.912-0.812C224.808,143.045,225.054,142.361,225.054,141.535z"/>
		<path fill="#361A13" d="M245.119,133.52l-5.022,13.5h-4.746l-4.786-13.5h4.456l2.347,8.318c0.264,0.941,0.417,1.74,0.462,2.4
			h0.053c0.061-0.624,0.224-1.398,0.487-2.32l2.399-8.398H245.119z"/>
		<path fill="#361A13" d="M249.009,131.384c-0.703,0-1.279-0.209-1.728-0.626c-0.448-0.418-0.673-0.93-0.673-1.536
			c0-0.624,0.225-1.134,0.673-1.529s1.024-0.593,1.728-0.593c0.711,0,1.289,0.197,1.733,0.593c0.443,0.396,0.665,0.905,0.665,1.529
			c0,0.633-0.222,1.151-0.665,1.556C250.298,131.182,249.72,131.384,249.009,131.384z M251.065,147.02h-4.166v-13.5h4.166V147.02z"
			/>
		<path fill="#361A13" d="M253.688,146.664v-3.375c0.686,0.413,1.369,0.721,2.05,0.922c0.681,0.203,1.325,0.304,1.932,0.304
			c0.738,0,1.32-0.101,1.747-0.304c0.426-0.201,0.639-0.509,0.639-0.922c0-0.264-0.096-0.483-0.289-0.66
			c-0.193-0.175-0.442-0.329-0.745-0.461c-0.304-0.132-0.636-0.25-0.995-0.355c-0.361-0.105-0.708-0.225-1.042-0.356
			c-0.536-0.202-1.009-0.42-1.417-0.652c-0.409-0.233-0.752-0.503-1.028-0.812c-0.277-0.307-0.488-0.663-0.633-1.067
			c-0.146-0.404-0.218-0.884-0.218-1.437c0-0.756,0.165-1.406,0.494-1.951c0.33-0.545,0.77-0.991,1.318-1.339
			c0.549-0.347,1.178-0.602,1.886-0.765c0.707-0.162,1.443-0.244,2.208-0.244c0.598,0,1.204,0.047,1.819,0.139
			c0.615,0.093,1.222,0.227,1.819,0.402v3.217c-0.527-0.308-1.092-0.538-1.694-0.692c-0.603-0.153-1.192-0.23-1.772-0.23
			c-0.273,0-0.53,0.024-0.771,0.072c-0.242,0.049-0.455,0.119-0.64,0.211c-0.185,0.093-0.329,0.211-0.435,0.356
			c-0.105,0.145-0.158,0.31-0.158,0.494c0,0.246,0.078,0.457,0.236,0.633s0.365,0.327,0.62,0.455
			c0.255,0.127,0.538,0.241,0.851,0.343c0.312,0.101,0.621,0.204,0.93,0.31c0.553,0.193,1.055,0.404,1.502,0.633
			c0.449,0.229,0.833,0.497,1.154,0.805c0.32,0.308,0.566,0.668,0.738,1.08c0.171,0.414,0.257,0.906,0.257,1.477
			c0,0.801-0.174,1.483-0.521,2.051c-0.348,0.566-0.809,1.028-1.385,1.384c-0.576,0.356-1.239,0.615-1.99,0.778
			c-0.752,0.162-1.531,0.244-2.34,0.244C256.329,147.35,254.954,147.12,253.688,146.664z"/>
	</g>
	<g>
		<g>
			<defs>
				<rect id="SVGID_1_" x="-168.244" y="105.689" width="46.614" height="44.035"/>
			</defs>
			<clipPath id="SVGID_2_">
				<use xlink:href="#SVGID_1_"  overflow="visible"/>
			</clipPath>
			<g transform="matrix(1 0 0 1 0 -7.629395e-006)" clip-path="url(#SVGID_2_)">
				
					<image overflow="visible" width="506" height="478" xlink:href="DABE70A3.jpg"  transform="matrix(0.0921 0 0 0.0921 -168.2446 105.6895)">
				</image>
			</g>
		</g>
		<g>
			<defs>
				<rect id="SVGID_3_" x="17.53" y="105.689" width="46.614" height="44.035"/>
			</defs>
			<clipPath id="SVGID_4_">
				<use xlink:href="#SVGID_3_"  overflow="visible"/>
			</clipPath>
			<g transform="matrix(1 0 0 1 -1.907349e-006 -7.629395e-006)" clip-path="url(#SVGID_4_)">
				
					<image overflow="visible" width="506" height="478" xlink:href="DABE70A1.jpg"  transform="matrix(0.0921 0 0 0.0921 17.5303 105.6895)">
				</image>
			</g>
		</g>
		<g>
			<defs>
				<rect id="SVGID_5_" x="-105.427" y="105.689" width="46.614" height="44.035"/>
			</defs>
			<clipPath id="SVGID_6_">
				<use xlink:href="#SVGID_5_"  overflow="visible"/>
			</clipPath>
			<g transform="matrix(1 0 0 1 7.629395e-006 -7.629395e-006)" clip-path="url(#SVGID_6_)">
				
					<image overflow="visible" width="506" height="478" xlink:href="DABE70A7.jpg"  transform="matrix(0.0921 0 0 0.0921 -105.4272 105.6895)">
				</image>
			</g>
		</g>
		<g>
			<defs>
				<rect id="SVGID_7_" x="-44.016" y="105.689" width="46.614" height="44.035"/>
			</defs>
			<clipPath id="SVGID_8_">
				<use xlink:href="#SVGID_7_"  overflow="visible"/>
			</clipPath>
			<g transform="matrix(1 0 0 1 3.814697e-006 -7.629395e-006)" clip-path="url(#SVGID_8_)">
				
					<image overflow="visible" width="506" height="478" xlink:href="DABE70A0.jpg"  transform="matrix(0.0921 0 0 0.0921 -44.0156 105.6895)">
				</image>
			</g>
		</g>
		
			<image overflow="visible" width="506" height="478" xlink:href="DABE70AE.jpg"  transform="matrix(0.0881 0 0 0.0881 77.1387 106.6484)">
		</image>
		<g>
			<path fill="#231F20" d="M-74.778,95.154v-7.594h-14.111v-4.852l12.053-19.402h9.113v18.667h3.822v5.586h-3.822v7.594H-74.778z
				 M-74.778,81.975v-7.056c0-1.911,0.098-3.871,0.245-5.929h-0.196c-1.029,2.058-1.862,3.92-2.939,5.929l-4.263,6.958v0.098
				H-74.778z"/>
			<path fill="#231F20" d="M-62.723,100.984c1.519-4.36,2.842-9.455,3.527-13.914l7.595-0.49
				c-1.617,4.998-3.822,10.143-6.174,13.964L-62.723,100.984z"/>
			<path fill="#231F20" d="M-26.759,69.432h-12.347l-0.686,4.899c0.686-0.098,1.274-0.098,2.058-0.098
				c3.038,0,6.125,0.686,8.378,2.303c2.401,1.617,3.871,4.263,3.871,7.986c0,5.93-5.096,11.172-13.67,11.172
				c-3.871,0-7.104-0.882-8.869-1.813l1.323-5.586c1.421,0.686,4.312,1.568,7.202,1.568c3.087,0,6.37-1.471,6.37-4.852
				c0-3.282-2.597-5.291-8.966-5.291c-1.764,0-2.989,0.098-4.312,0.294l2.107-16.708h17.541V69.432z"/>
			<path fill="#231F20" d="M-13.026,96.674l10.601-27.546h2.583L-10.48,96.674H-13.026z"/>
			<path fill="#231F20" d="M24.553,73.27H15.13l-0.949,6.346c0.569-0.076,1.102-0.152,2.014-0.152c1.899,0,3.799,0.418,5.318,1.33
				c1.938,1.102,3.533,3.229,3.533,6.345c0,4.825-3.837,8.435-9.193,8.435c-2.698,0-4.979-0.76-6.156-1.52l0.836-2.546
				c1.026,0.608,3.04,1.368,5.281,1.368c3.154,0,5.852-2.053,5.852-5.357c-0.038-3.191-2.166-5.471-7.105-5.471
				c-1.405,0-2.507,0.151-3.419,0.266l1.596-11.854h11.816V73.27z"/>
		</g>
	</g>
</g>
</svg>
