<?xml version="1.0" encoding="utf-8"?>
<!-- Generator: Adobe Illustrator 16.0.0, SVG Export Plug-In . SVG Version: 6.00 Build 0)  -->
<!DOCTYPE svg PUBLIC "-//W3C//DTD SVG 1.1//EN" "http://www.w3.org/Graphics/SVG/1.1/DTD/svg11.dtd">
<svg version="1.1" id="Calque_1" xmlns="http://www.w3.org/2000/svg" xmlns:xlink="http://www.w3.org/1999/xlink" x="0px" y="0px"
	 width="238.935px" height="65.5px" viewBox="8.565 34.5 238.935 65.5" enable-background="new 8.565 34.5 238.935 65.5"
	 xml:space="preserve">
<g>
	<g enable-background="new    ">
		<path fill="#361A13" d="M165.395,90.838h5.549v2.391h-8.707v-0.985c0-0.67,0.114-1.27,0.338-1.803
			c0.226-0.532,0.508-1.01,0.849-1.433s0.713-0.797,1.118-1.122c0.404-0.326,0.79-0.62,1.153-0.881
			c0.385-0.273,0.719-0.535,1.008-0.784c0.29-0.25,0.534-0.498,0.731-0.744c0.197-0.246,0.345-0.496,0.443-0.748
			c0.097-0.253,0.146-0.522,0.146-0.808c0-0.561-0.158-0.983-0.475-1.269s-0.8-0.429-1.452-0.429c-1.125,0-2.202,0.446-3.229,1.342
			v-2.538c1.137-0.736,2.421-1.104,3.85-1.104c0.664,0,1.257,0.086,1.785,0.26c0.526,0.173,0.972,0.421,1.337,0.743
			c0.366,0.322,0.644,0.713,0.834,1.173c0.192,0.458,0.288,0.971,0.288,1.538c0,0.602-0.093,1.138-0.278,1.605
			c-0.185,0.468-0.431,0.894-0.739,1.278c-0.307,0.382-0.661,0.735-1.063,1.054c-0.401,0.318-0.818,0.627-1.251,0.927
			c-0.292,0.206-0.572,0.412-0.843,0.615c-0.271,0.204-0.509,0.405-0.717,0.603c-0.207,0.197-0.371,0.391-0.492,0.579
			C165.456,90.488,165.395,90.668,165.395,90.838z"/>
		<path fill="#361A13" d="M182.214,81.804c-0.585,1.054-1.108,2.039-1.57,2.962c-0.462,0.921-0.87,1.83-1.223,2.728
			c-0.354,0.898-0.654,1.81-0.904,2.737c-0.25,0.929-0.452,1.929-0.611,2.998h-3.013c0.171-1.016,0.396-1.996,0.677-2.938
			c0.28-0.943,0.603-1.857,0.972-2.742c0.368-0.885,0.774-1.748,1.223-2.588s0.921-1.661,1.42-2.464h-6.078v-2.354h9.107v1.661
			H182.214z"/>
		<path fill="#361A13" d="M188.283,93.458c-3.115,0-4.672-2.188-4.672-6.562c0-2.269,0.42-3.998,1.264-5.188
			c0.842-1.189,2.063-1.785,3.664-1.785c3.042,0,4.563,2.225,4.563,6.672c0,2.215-0.415,3.912-1.245,5.092
			C191.025,92.868,189.833,93.458,188.283,93.458z M188.41,82.123c-1.248,0-1.87,1.567-1.87,4.701c0,2.949,0.611,4.425,1.833,4.425
			c1.192,0,1.789-1.52,1.789-4.563C190.163,83.645,189.578,82.123,188.41,82.123z"/>
		<path fill="#361A13" d="M203.651,86.056c0,1.163-0.128,2.201-0.384,3.117c-0.256,0.916-0.627,1.689-1.117,2.322
			c-0.491,0.633-1.089,1.118-1.794,1.456c-0.707,0.338-1.506,0.507-2.401,0.507c-1.071,0-1.993-0.172-2.764-0.512v-2.372
			c0.686,0.449,1.515,0.674,2.482,0.674c0.991,0,1.768-0.337,2.326-1.012c0.559-0.677,0.843-1.652,0.85-2.93l-0.056-0.018
			c-0.577,0.856-1.457,1.286-2.637,1.286c-0.536,0-1.029-0.101-1.483-0.301c-0.454-0.201-0.847-0.479-1.177-0.835
			c-0.333-0.356-0.592-0.78-0.776-1.274c-0.185-0.491-0.278-1.034-0.278-1.625c0-0.687,0.112-1.313,0.337-1.879
			s0.539-1.054,0.944-1.46c0.404-0.407,0.89-0.722,1.456-0.944c0.566-0.223,1.193-0.333,1.88-0.333c0.711,0,1.351,0.139,1.916,0.415
			c0.566,0.277,1.048,0.678,1.446,1.2c0.399,0.524,0.703,1.165,0.913,1.926C203.545,84.225,203.651,85.089,203.651,86.056z
			 M200.74,84.522c0-0.334-0.043-0.649-0.129-0.943c-0.085-0.297-0.204-0.55-0.355-0.763s-0.338-0.382-0.558-0.507
			c-0.218-0.125-0.458-0.187-0.721-0.187c-0.249,0-0.478,0.055-0.689,0.164c-0.21,0.109-0.39,0.26-0.542,0.451
			c-0.154,0.191-0.271,0.422-0.356,0.689c-0.085,0.268-0.129,0.556-0.129,0.866c0,0.341,0.043,0.644,0.129,0.909
			c0.085,0.265,0.204,0.488,0.36,0.67c0.156,0.183,0.342,0.322,0.561,0.416c0.219,0.095,0.462,0.142,0.73,0.142
			c0.256,0,0.487-0.051,0.694-0.15c0.207-0.102,0.386-0.237,0.534-0.407c0.147-0.17,0.265-0.37,0.348-0.602
			C200.697,85.041,200.74,84.791,200.74,84.522z"/>
		<path fill="#361A13" d="M218.626,93.229h-2.729v-1.34h-0.037c-0.625,1.046-1.553,1.569-2.782,1.569
			c-0.908,0-1.621-0.257-2.141-0.771c-0.521-0.515-0.78-1.2-0.78-2.06c0-1.812,1.074-2.859,3.221-3.139l2.537-0.337
			c0-1.022-0.553-1.533-1.66-1.533c-1.113,0-2.172,0.331-3.176,0.994v-2.171c0.402-0.208,0.95-0.39,1.647-0.548
			c0.697-0.159,1.332-0.238,1.901-0.238c2.667,0,3.999,1.33,3.999,3.988L218.626,93.229L218.626,93.229z M215.916,89.433v-0.63
			l-1.698,0.22c-0.937,0.122-1.404,0.545-1.404,1.269c0,0.328,0.114,0.597,0.342,0.808c0.229,0.21,0.536,0.314,0.926,0.314
			c0.542,0,0.983-0.188,1.324-0.563C215.745,90.478,215.916,90.005,215.916,89.433z"/>
		<path fill="#361A13" d="M229.805,83.885l-3.476,9.344h-3.286l-3.313-9.344h3.086l1.625,5.758c0.183,0.651,0.288,1.205,0.318,1.661
			h0.037c0.042-0.432,0.156-0.968,0.338-1.606l1.66-5.813H229.805z"/>
		<path fill="#361A13" d="M232.498,82.406c-0.486,0-0.886-0.145-1.196-0.434c-0.31-0.289-0.467-0.643-0.467-1.063
			c0-0.433,0.157-0.786,0.467-1.059c0.31-0.273,0.708-0.411,1.196-0.411c0.492,0,0.893,0.137,1.199,0.411
			c0.307,0.273,0.461,0.626,0.461,1.059c0,0.438-0.154,0.797-0.461,1.076C233.391,82.267,232.99,82.406,232.498,82.406z
			 M233.92,93.229h-2.884v-9.344h2.884V93.229z"/>
		<path fill="#361A13" d="M235.735,92.983v-2.336c0.477,0.286,0.949,0.498,1.421,0.638c0.471,0.141,0.916,0.211,1.336,0.211
			c0.512,0,0.915-0.07,1.21-0.211c0.295-0.14,0.443-0.352,0.443-0.638c0-0.183-0.067-0.335-0.2-0.457
			c-0.135-0.121-0.306-0.228-0.517-0.319c-0.21-0.091-0.439-0.174-0.688-0.246c-0.25-0.073-0.49-0.155-0.722-0.246
			c-0.371-0.14-0.698-0.291-0.98-0.452c-0.282-0.16-0.521-0.348-0.711-0.562c-0.192-0.213-0.339-0.458-0.438-0.738
			c-0.102-0.28-0.151-0.612-0.151-0.995c0-0.523,0.113-0.974,0.342-1.351c0.229-0.377,0.533-0.687,0.913-0.926
			c0.38-0.241,0.814-0.417,1.305-0.53c0.489-0.113,0.999-0.169,1.529-0.169c0.414,0,0.832,0.032,1.259,0.097
			c0.426,0.064,0.847,0.157,1.259,0.277v2.228c-0.364-0.213-0.756-0.372-1.173-0.479c-0.418-0.104-0.824-0.159-1.226-0.159
			c-0.19,0-0.367,0.017-0.535,0.05c-0.167,0.034-0.314,0.082-0.443,0.146c-0.127,0.064-0.227,0.146-0.3,0.246
			c-0.072,0.101-0.109,0.215-0.109,0.342c0,0.171,0.055,0.317,0.164,0.438c0.109,0.122,0.253,0.227,0.428,0.314
			c0.178,0.088,0.373,0.168,0.59,0.237c0.216,0.07,0.43,0.142,0.644,0.216c0.383,0.133,0.73,0.28,1.04,0.438
			c0.311,0.158,0.575,0.345,0.799,0.558c0.222,0.213,0.392,0.462,0.511,0.748c0.118,0.286,0.177,0.627,0.177,1.021
			c0,0.554-0.12,1.026-0.359,1.419c-0.241,0.393-0.562,0.714-0.959,0.959c-0.399,0.246-0.858,0.426-1.377,0.538
			c-0.521,0.112-1.06,0.169-1.621,0.169C237.565,93.458,236.614,93.299,235.735,92.983z"/>
	</g>
	<g>
		<path fill="#231F20" d="M74.34,58.782v-4.594h-8.539v-2.937l7.292-11.738h5.514v11.293h2.313v3.38h-2.313v4.595L74.34,58.782
			L74.34,58.782z M74.34,50.809V46.54c0-1.157,0.059-2.343,0.148-3.588h-0.119c-0.622,1.245-1.126,2.372-1.778,3.588l-2.579,4.21
			v0.059H74.34z"/>
		<path fill="#231F20" d="M81.633,62.311c0.919-2.639,1.72-5.721,2.134-8.419l4.595-0.296c-0.978,3.023-2.312,6.137-3.735,8.448
			L81.633,62.311z"/>
		<path fill="#231F20" d="M103.393,43.219h-7.47l-0.415,2.965c0.415-0.06,0.771-0.06,1.245-0.06c1.838,0,3.706,0.416,5.068,1.395
			c1.453,0.978,2.343,2.579,2.343,4.831c0,3.588-3.083,6.76-8.271,6.76c-2.342,0-4.298-0.533-5.366-1.097l0.8-3.381
			c0.86,0.415,2.609,0.95,4.357,0.95c1.868,0,3.854-0.891,3.854-2.937c0-1.985-1.571-3.201-5.425-3.201
			c-1.067,0-1.809,0.06-2.609,0.178l1.275-10.108h10.613V43.219L103.393,43.219z"/>
		<path fill="#231F20" d="M111.702,59.702l6.414-16.667h1.563l-6.436,16.667H111.702z"/>
		<path fill="#231F20" d="M134.438,45.542h-5.701l-0.575,3.84c0.344-0.046,0.667-0.092,1.218-0.092c1.149,0,2.299,0.252,3.218,0.804
			c1.172,0.667,2.137,1.954,2.137,3.838c0,2.92-2.321,5.104-5.562,5.104c-1.632,0-3.013-0.459-3.725-0.92l0.506-1.541
			c0.621,0.368,1.839,0.828,3.195,0.828c1.908,0,3.541-1.242,3.541-3.241c-0.023-1.931-1.311-3.311-4.299-3.311
			c-0.85,0-1.517,0.092-2.068,0.161l0.965-7.172h7.149L134.438,45.542L134.438,45.542z"/>
	</g>
	<g>
		
			<image overflow="visible" width="522" height="488" xlink:href="DABE70AE.jpg"  transform="matrix(0.061 0 0 0.061 123.4717 64.5557)">
		</image>
		
			<image overflow="visible" width="510" height="489" xlink:href="DABE70A1.jpg"  transform="matrix(0.0637 0 0 0.0637 84.0171 63.8574)">
		</image>
		
			<image overflow="visible" width="510" height="489" xlink:href="DABE70A3.jpg"  transform="matrix(0.0637 0 0 0.0637 45.4404 63.8574)">
		</image>
		
			<image overflow="visible" width="510" height="489" xlink:href="DABE70A7.jpg"  transform="matrix(0.0637 0 0 0.0637 8.5654 63.8574)">
		</image>
	</g>
</g>
</svg>
