<?xml version="1.0" encoding="utf-8"?>
<!-- Generator: Adobe Illustrator 16.0.0, SVG Export Plug-In . SVG Version: 6.00 Build 0)  -->
<!DOCTYPE svg PUBLIC "-//W3C//DTD SVG 1.1//EN" "http://www.w3.org/Graphics/SVG/1.1/DTD/svg11.dtd">
<svg version="1.1" id="Calque_1" xmlns="http://www.w3.org/2000/svg" xmlns:xlink="http://www.w3.org/1999/xlink" x="0px" y="0px"
	 width="214.489px" height="129.238px" viewBox="0 0 214.489 129.238" enable-background="new 0 0 214.489 129.238"
	 xml:space="preserve">
<g>
	<path fill-rule="evenodd" clip-rule="evenodd" d="M160.574,44.267c8.705,0,16.503-0.424,24.215,0.211
		c3.055,0.252,5.979,2.754,8.83,4.453c0.866,0.516,1.148,1.92,1.932,2.674c15.667,15.07,8.986,34.475,9.848,52.336
		c0.06,1.254-4.03,3.777-6.25,3.848c-4.359,0.139-6.94,1.061-9.387,5.273c-7.084,12.205-24.765,11.893-31.958-0.49
		c-2.155-3.711-4.336-4.719-8.306-4.643c-12.241,0.24-24.494,0.254-36.734-0.006c-4.019-0.086-6.211,1.018-8.322,4.686
		c-7.136,12.396-24.717,12.74-31.905,0.396c-2.525-4.338-5.15-5.123-9.414-5.051c-9.827,0.168-9.833,0.035-9.834-10.041
		c-0.004-20.707,0.148-41.416-0.1-62.121c-0.066-5.563,1.936-7.459,7.366-7.434c30.949,0.141,61.899,0.154,92.848-0.012
		c5.602-0.031,7.713,2.158,7.21,7.553C160.389,38.288,160.574,40.716,160.574,44.267z M62.016,37.354c0,20.961,0,41.342,0,64.07
		c3.699-2.113,7.368-2.92,8.326-4.984c3.685-7.941,9.543-12.361,18.09-12.379c8.328-0.016,14.134,4.461,17.637,12.051
		c0.646,1.396,2.102,3.432,3.213,3.449c14.163,0.234,28.331,0.154,42.54,0.154c0-21.336,0-41.719,0-62.361
		C121.833,37.354,92.256,37.354,62.016,37.354z M161.005,53.323c0,11.883,0,23.074,0,34.133c4.555-1.236,8.719-3.24,12.921-3.324
		c8.626-0.172,14.488,4.561,18.026,12.406c0.584,1.295,2.232,2.162,3.533,3.002c0.132,0.086,1.828-1.361,1.846-2.121
		c0.154-6.561,0.089-13.127,0.089-20.039c-7.792,0-14.476-0.305-21.118,0.086c-6.288,0.369-8.356-2.344-7.994-8.279
		c0.32-5.254,0.066-10.543,0.066-15.863C165.545,53.323,163.57,53.323,161.005,53.323z M77.792,102.237
		c-0.491,5.209,4.042,10.527,9.428,11.063c5.832,0.578,11.08-3.748,11.527-9.502c0.422-5.43-3.808-10.477-9.317-11.113
		C83.836,92.038,78.33,96.56,77.792,102.237z M173.735,92.603c-5.466,0.119-10.235,4.91-10.268,10.313
		c-0.035,5.701,4.973,10.545,10.769,10.416c5.849-0.131,10.422-5.057,10.123-10.906C184.08,96.958,179.239,92.481,173.735,92.603z
		 M177.689,68.647c6.669,0,12.476,0,18.498,0c-7.913-15.328-9.458-16.543-18.498-14.631
		C177.689,58.763,177.689,63.54,177.689,68.647z"/>
	<path fill-rule="evenodd" clip-rule="evenodd" d="M25.987,37.083c-4.43,0.002-8.937,0.488-13.258-0.199
		c-2.217-0.354-4.101-2.799-6.136-4.297c1.912-1.357,3.777-3.799,5.743-3.883c9.507-0.406,19.051-0.41,28.557,0.02
		c1.897,0.088,3.68,2.697,5.515,4.145c-1.935,1.404-3.748,3.76-5.826,4.021C35.785,37.495,30.859,37.083,25.987,37.083z"/>
	<path fill-rule="evenodd" clip-rule="evenodd" d="M29.854,53.081c-3.786-0.006-7.662,0.479-11.317-0.209
		c-1.844-0.348-3.289-2.816-4.914-4.326c1.531-1.361,3.003-3.814,4.603-3.9c7.77-0.418,15.588-0.461,23.354-0.01
		c1.696,0.1,3.242,2.77,4.857,4.254c-1.742,1.4-3.331,3.674-5.259,4.014C37.505,53.548,33.639,53.089,29.854,53.081z"/>
	<path fill-rule="evenodd" clip-rule="evenodd" d="M34.267,69.108c-2.424,0-5.025,0.543-7.216-0.172
		c-1.727-0.563-2.951-2.674-4.398-4.096c1.406-1.418,2.7-3.893,4.241-4.059c5.008-0.539,10.14-0.559,15.152-0.057
		c1.59,0.158,2.956,2.576,4.424,3.961c-1.644,1.482-3.063,3.613-4.989,4.277c-2.167,0.748-4.79,0.172-7.213,0.172
		C34.267,69.128,34.267,69.118,34.267,69.108z"/>
	<path fill-rule="evenodd" clip-rule="evenodd" fill="#FFFFFF" d="M62.016,37.354c30.24,0,59.817,0,89.807,0
		c0,20.643,0,41.025,0,62.361c-14.208,0-28.376,0.08-42.54-0.154c-1.111-0.018-2.568-2.053-3.213-3.449
		c-3.503-7.59-9.309-12.066-17.637-12.051c-8.547,0.018-14.405,4.438-18.09,12.379c-0.958,2.064-4.627,2.871-8.326,4.984
		C62.016,78.696,62.016,58.315,62.016,37.354z"/>
	<path fill-rule="evenodd" clip-rule="evenodd" fill="#FFFFFF" d="M161.005,53.323c2.564,0,4.54,0,7.369,0
		c0,5.32,0.253,10.609-0.066,15.863c-0.362,5.936,1.706,8.648,7.994,8.279c6.643-0.391,13.326-0.086,21.118-0.086
		c0,6.912,0.065,13.479-0.089,20.039c-0.018,0.76-1.713,2.207-1.846,2.121c-1.301-0.84-2.949-1.707-3.533-3.002
		c-3.538-7.846-9.4-12.578-18.026-12.406c-4.202,0.084-8.366,2.088-12.921,3.324C161.005,76.397,161.005,65.206,161.005,53.323z"/>
	<path fill-rule="evenodd" clip-rule="evenodd" fill="#FFFFFF" d="M77.792,102.237c0.537-5.678,6.043-10.199,11.638-9.553
		c5.51,0.637,9.74,5.684,9.317,11.113c-0.447,5.754-5.696,10.08-11.527,9.502C81.834,112.765,77.301,107.446,77.792,102.237z"/>
	<path fill-rule="evenodd" clip-rule="evenodd" fill="#FFFFFF" d="M173.735,92.603c5.504-0.121,10.345,4.355,10.625,9.822
		c0.299,5.85-4.274,10.775-10.123,10.906c-5.796,0.129-10.804-4.715-10.769-10.416C163.5,97.513,168.269,92.722,173.735,92.603z"/>
	<path fill-rule="evenodd" clip-rule="evenodd" fill="#FFFFFF" d="M177.689,68.647c0-5.107,0-9.885,0-14.631
		c9.04-1.912,10.585-0.697,18.498,14.631C190.165,68.647,184.358,68.647,177.689,68.647z"/>
</g>
</svg>
