<svg xmlns="http://www.w3.org/2000/svg" width="29" height="29" viewBox="0 0 29 29">
  <g id="icone_categories" data-name="icone categories" transform="translate(-81 -873)">
    <g id="Rectangle_26" data-name="Rectangle 26" transform="translate(81 873)" fill="#161616" stroke="#040404" stroke-width="1">
      <rect width="9" height="9" rx="2" stroke="none"/>
      <rect x="0.5" y="0.5" width="8" height="8" rx="1.5" fill="none"/>
    </g>
    <g id="Rectangle_27" data-name="Rectangle 27" transform="translate(91 893)" fill="#171515" stroke="#000" stroke-width="1">
      <rect width="9" height="9" rx="2" stroke="none"/>
      <rect x="0.5" y="0.5" width="8" height="8" rx="1.5" fill="none"/>
    </g>
    <g id="Rectangle_28" data-name="Rectangle 28" transform="translate(81 893)" fill="#191616" stroke="#000" stroke-width="1">
      <rect width="9" height="9" rx="2" stroke="none"/>
      <rect x="0.5" y="0.5" width="8" height="8" rx="1.5" fill="none"/>
    </g>
    <g id="Rectangle_29" data-name="Rectangle 29" transform="translate(101 883)" fill="#171717" stroke="#000" stroke-width="1">
      <rect width="9" height="9" rx="2" stroke="none"/>
      <rect x="0.5" y="0.5" width="8" height="8" rx="1.5" fill="none"/>
    </g>
    <g id="Rectangle_30" data-name="Rectangle 30" transform="translate(91 883)" fill="#161313" stroke="#060606" stroke-width="1">
      <rect width="9" height="9" rx="2" stroke="none"/>
      <rect x="0.5" y="0.5" width="8" height="8" rx="1.5" fill="none"/>
    </g>
    <g id="Rectangle_31" data-name="Rectangle 31" transform="translate(81 883)" fill="#1a1a1a" stroke="#060606" stroke-width="1">
      <rect width="9" height="9" rx="2" stroke="none"/>
      <rect x="0.5" y="0.5" width="8" height="8" rx="1.5" fill="none"/>
    </g>
    <g id="Rectangle_32" data-name="Rectangle 32" transform="translate(101 873)" fill="#111" stroke="#111" stroke-width="1">
      <rect width="9" height="9" rx="2" stroke="none"/>
      <rect x="0.5" y="0.5" width="8" height="8" rx="1.5" fill="none"/>
    </g>
    <g id="Rectangle_33" data-name="Rectangle 33" transform="translate(91 873)" fill="#1d1d1d" stroke="#0c0b0b" stroke-width="1">
      <rect width="9" height="9" rx="2" stroke="none"/>
      <rect x="0.5" y="0.5" width="8" height="8" rx="1.5" fill="none"/>
    </g>
    <g id="Rectangle_34" data-name="Rectangle 34" transform="translate(101 893)" fill="#161414" stroke="#000" stroke-width="1">
      <rect width="9" height="9" rx="2" stroke="none"/>
      <rect x="0.5" y="0.5" width="8" height="8" rx="1.5" fill="none"/>
    </g>
  </g>
</svg>
