<?xml version="1.0" encoding="utf-8"?>
<!-- Generator: Adobe Illustrator 16.0.0, SVG Export Plug-In . SVG Version: 6.00 Build 0)  -->
<!DOCTYPE svg PUBLIC "-//W3C//DTD SVG 1.1//EN" "http://www.w3.org/Graphics/SVG/1.1/DTD/svg11.dtd">
<svg version="1.1" id="Calque_1" xmlns="http://www.w3.org/2000/svg" xmlns:xlink="http://www.w3.org/1999/xlink" x="0px" y="0px"
	 width="195.5px" height="98px" viewBox="-51 15 195.5 98" enable-background="new -51 15 195.5 98" xml:space="preserve">
<path fill-rule="evenodd" clip-rule="evenodd" fill="#4F4F4F" d="M-60.437-122.108c3.792,7.053,5.328,14.477,7.021,21.907
	c1.294-10.696,0.332-21.292-1.585-31.866c3.587,7.383,5.145,15.306,6.283,23.341c0.193-0.002,0.387-0.006,0.581-0.008
	c0-4.461,0.288-8.947-0.074-13.379c-0.426-5.204-1.432-10.359-2.135-15.542c-0.079-0.589-0.038-1.395,0.303-1.811
	c10.107-12.371,26.284-13.147,37.063-3.142c7.582,7.037,8.822,19.214,3.451,29.481c-3.012,5.759-7.426,10.29-12.447,14.3
	c-6.788,5.416-21,12.908-27.55,14.387c8.935-6.396,15.91-14.168,20.973-23.465c2.546-4.677,4.274-9.817,6.16-14.827
	c0.691-1.84,0.77-3.911,0.914-5.936c-2.523,8.96-6.771,16.997-12.612,24.158C-45.486-90.539-60.015-81.984-77.949-79.32
	c-13.475,2.002-26.406,0.588-38.564-5.84c-9.502-5.023-16.671-12.318-21.081-22.207c-0.149-0.334-0.361-0.635-0.872-1.521
	c1.365,7.122,3.957,13.032,7.66,18.497c-0.219,0.17-0.436,0.34-0.653,0.51c-2.406-2.754-5.157-5.281-7.156-8.305
	c-6.585-9.964-7.935-20.944-5.399-32.467c0.34-1.545,0.117-2.656-0.77-3.907c-3.723-5.26-7.114-10.715-8.992-16.956
	c-0.27-0.892-0.33-1.847-0.487-2.773c0.176-0.094,0.352-0.187,0.527-0.28c0.704,0.89,1.499,1.723,2.097,2.679
	c3.095,4.945,6.083,9.958,9.24,14.862c0.819,1.274,1.955,2.48,3.211,3.318c18.581,12.397,38.824,20.653,60.921,24.231
	c1.099,0.178,2.19,0.404,3.262,0.721c-10.976-0.525-21.56-2.98-31.915-6.582c-10.294-3.579-20.092-8.236-29.586-13.585
	c12.853,16.318,29.238,27.282,49.245,32.792c-22.741-3.461-39.843-16.062-53.967-33.505c-2.471,4.943-1.378,19.549,2.959,27.505
	c-1.431-6.335-3.067-12.01-1.866-17.963c1.461,7.489,4.502,14.248,9.146,20.244c6.017,7.766,13.487,13.328,23.479,14.83
	c5.331,0.801,10.413-0.158,15.311-2.318c10.002-4.41,17.45-11.736,23.393-20.701c2.353-3.546,4.378-7.31,6.552-10.974
	C-61.696-119.962-61.141-120.912-60.437-122.108z"/>
<g>
	<path id="Tracé_25" fill="#4F4F4F" d="M305.305-153.323c0.379-0.221,0.508-0.707,0.287-1.085
		c-0.069-0.118-0.168-0.217-0.287-0.286l-30.353-17.637c-3.953-2.291-8.83-2.291-12.782,0l-30.345,17.635
		c-0.379,0.221-0.506,0.707-0.286,1.086c0.069,0.118,0.169,0.216,0.286,0.286l36.34,21.378c0.248,0.146,0.557,0.146,0.805,0
		L305.305-153.323z"/>
	<path id="Tracé_26" fill="#4F4F4F" d="M228.424-147.917c-0.381-0.219-0.866-0.087-1.084,0.293
		c-0.07,0.121-0.106,0.259-0.105,0.398v34.556c0.007,3.388,1.81,6.519,4.736,8.225l32.224,19.322
		c0.381,0.218,0.864,0.087,1.083-0.293c0.068-0.12,0.105-0.256,0.105-0.394v-40.092c-0.002-0.283-0.153-0.544-0.398-0.686
		L228.424-147.917z"/>
	<path id="Tracé_27" fill="#4F4F4F" d="M271.742-125.762v39.94c0.001,0.439,0.357,0.793,0.795,0.793
		c0.139-0.001,0.273-0.038,0.393-0.105l32.226-19.321c2.925-1.704,4.729-4.83,4.739-8.216v-34.554
		c-0.001-0.438-0.356-0.792-0.795-0.792c-0.139,0-0.273,0.036-0.394,0.105l-36.568,21.461c-0.246,0.142-0.397,0.404-0.398,0.688
		H271.742z"/>
</g>
<g>
	<path fill="#4F4F4F" d="M115.821-82.604c-24.604,0-44.617-20.015-44.617-44.615c0-24.603,20.014-44.618,44.617-44.618
		c24.602,0,44.617,20.015,44.617,44.618C160.438-102.619,140.423-82.604,115.821-82.604z M115.821-168.725
		c-22.888,0-41.506,18.62-41.506,41.506c0,22.886,18.618,41.502,41.506,41.502c22.887,0,41.506-18.616,41.506-41.502
		C157.327-150.105,138.708-168.725,115.821-168.725z"/>
	<polygon fill="#4F4F4F" points="114.352,-152.979 127.144,-152.979 114.352,-135.346 133.195,-132.924 105.362,-99.387 
		119.278,-126.183 98.447,-126.183 	"/>
</g>
<image overflow="visible" width="183" height="92" xlink:href="maniable.png"  transform="matrix(1 0 0 1 -44.75 21)">
</image>
</svg>
