<?xml version="1.0" encoding="utf-8"?>
<!-- Generator: Adobe Illustrator 16.0.0, SVG Export Plug-In . SVG Version: 6.00 Build 0)  -->
<!DOCTYPE svg PUBLIC "-//W3C//DTD SVG 1.1//EN" "http://www.w3.org/Graphics/SVG/1.1/DTD/svg11.dtd">
<svg version="1.1" id="Calque_1" xmlns="http://www.w3.org/2000/svg" xmlns:xlink="http://www.w3.org/1999/xlink" x="0px" y="0px"
	 width="195.5px" height="98px" viewBox="-51 15 195.5 98" enable-background="new -51 15 195.5 98" xml:space="preserve">
<g>
	<path fill-rule="evenodd" clip-rule="evenodd" fill="#4F4F4F" d="M138.094,36.021c-2.557,6.228-5.211,12.441-6.697,19.02
		c-0.625,2.769-1.945,4.896-3.842,6.796c-5.158,5.169-10.889,9.705-16.109,14.841c-4.67,4.595-11.885,3.463-17.842,5.337
		c-2.203,0.693-4.533,1.04-6.83,1.373c-7.369,1.069-11.551,5.403-12.807,12.582c-0.539,3.082-1.787,4.312-5.168,4.158
		c-7.087-0.32-14.199-0.097-21.985-0.097c4.13-8.056,6.108-16.324,9.707-23.912c6.236-13.147,17.127-18.731,33.445-16.648
		c6.239,0.797,11.42-0.321,16.533-3.526c2.948-1.848,6.042-3.483,9.559-4.055c1.171-0.563,2.353-1.038,3.653-0.409
		c0.435,0.277,0.66,0.684,0.704,1.193c-0.101,0.309-0.263,0.582-0.458,0.836c-1.062,1.384-3.979,1.676-2.771,4.371
		c0.469,1.045,1.623,0.914,2.566,0.457c2.105-1.021,4.265-2.046,2.762-5.052c-0.297-1.809-0.032-3.588,0.281-5.369
		c0.221-0.408,0.492-0.779,0.793-1.129c2.102-2.611,3.844-5.415,5.039-8.575c1.518-4.011,4.196-5.897,8.572-4.233
		c0.309-0.222,0.607-0.207,0.895,0.042C138.094,34.688,138.094,35.354,138.094,36.021z"/>
	<path fill-rule="evenodd" clip-rule="evenodd" fill="#4F4F4F" d="M-22.873,51.888c4.549,0.75,8.321,3.268,12.197,5.483
		c3.921,2.24,7.889,2.707,12.426,2.26c20.887-2.059,31.41,4.505,37.557,22.957c1.92,5.766,4.35,11.362,6.702,17.441
		c-7.925,0-15.54-0.083-23.151,0.054c-2.15,0.038-2.85-0.792-3.156-2.738c-1.414-8.965-6.79-13.586-15.761-14.481
		c-3.446-0.344-6.818-1.389-10.246-1.987c-6.686-1.167-13.033-2.873-16.854-9.256c-0.329-0.55-0.873-1.061-1.438-1.368
		c-13.93-7.587-15.477-22.217-19.982-35.151c-0.096-0.273,0.371-0.741,0.576-1.119c4.359-1.741,7.032,0.358,8.633,4.115
		c1.311,3.07,3.197,5.764,4.86,8.609c0.24,0.407,0.423,0.84,0.568,1.289c0.36,1.595,0.917,3.163,0.709,4.841
		c-0.123,0.817-0.647,1.595-0.55,2.401c0.266,2.219,2.271,2.611,3.867,3.329c0.824,0.37,1.734-0.004,2.051-0.869
		c0.705-1.918-0.938-2.57-2.074-3.455c-0.527-0.411-1.014-0.842-1.278-1.482c0.016-0.528,0.235-0.94,0.66-1.251
		C-25.244,50.836-24.055,51.326-22.873,51.888z"/>
	<path fill-rule="evenodd" clip-rule="evenodd" fill="#585858" d="M-30.926,47.037c-3.015-1.44-3.949-4.643-4.934-7.207
		c-1.57-4.096-4.072-5.782-8.145-5.849c0.612-0.728,1.898-0.567,2.172-1.811c0.338-1.536-0.964-4.165,2.128-4.056
		c2.729,0.097,4.225,2.28,4.585,4.554c0.484,3.063,1.994,5.569,3.218,8.259c0.429,0.942,1.021,1.682,1.993,2.08
		C-28.906,45.827-29.009,46.229-30.926,47.037z"/>
	<path fill-rule="evenodd" clip-rule="evenodd" fill="#585858" d="M137.199,33.979c-4.387-0.112-6.95,1.899-8.094,6.235
		c-0.801,3.035-2.983,5.434-5.014,7.813c-1.301-1.738-1.59-3.495-0.096-5.284c1.697-3.133,3.846-6.044,4.218-9.785
		c0.146-1.467,0.959-2.855,2.208-3.708c2.051-1.399,4.445-2.805,4.508,1.474C134.957,32.582,135.851,33.31,137.199,33.979z"/>
	<path fill-rule="evenodd" clip-rule="evenodd" fill="#565656" d="M123.996,42.743c0.032,1.761,0.064,3.522,0.096,5.284
		c-0.326-0.001-0.653-0.005-0.98-0.013c-0.581,1.339-0.788,2.937-2.443,3.532c-0.971-0.356-2.787,0.727-2.637-1.544
		C120,47.567,118.662,42.413,123.996,42.743z"/>
	<path fill-rule="evenodd" clip-rule="evenodd" fill="#585858" d="M-30.926,47.037c1.684-1.003-0.204-2.908,1.018-4.028
		c4.547,0.253,3.191,4.805,5.088,6.988c0.151,2.201-1.615,1.217-2.584,1.56c-1.799-0.522-2.184-2.459-3.479-3.486
		C-30.897,47.727-30.912,47.382-30.926,47.037z"/>
	<path fill-rule="evenodd" clip-rule="evenodd" fill="#CBCBCB" d="M-27.816,50.891c1.119,0.105,2.362,0.629,2.996-0.894
		c0.648,0.63,1.299,1.261,1.947,1.891c-1.308,0.086-2.615,0.172-3.924,0.259c-0.746,0.418-1.584,0.502-1.982-0.301
		C-29.145,51.111-28.465,50.894-27.816,50.891z"/>
	<path fill-rule="evenodd" clip-rule="evenodd" fill="#CBCBCB" d="M118.031,50.003c0.627,1.514,1.877,0.977,2.985,0.905
		c0.649,0,1.317,0.223,0.944,0.95c-0.404,0.792-1.236,0.708-1.978,0.288c-1.309-0.086-2.617-0.171-3.926-0.257
		C116.716,51.261,117.373,50.632,118.031,50.003z"/>
	<path fill-rule="evenodd" clip-rule="evenodd" fill="#F5F5F5" d="M123.12,52.985c3.669,4.705-1.407,5.287-3.51,6.931
		c-2.071,1.619-3.862,0.055-4.464-1.933c-1.271-4.202,2.443-4.147,4.848-5.139C121.057,52.45,122.108,52.275,123.12,52.985z"/>
	<path fill-rule="evenodd" clip-rule="evenodd" fill="#919191" d="M123.12,52.985c-1.042-0.047-2.083-0.094-3.126-0.141
		c0.021-0.233,0.018-0.466-0.01-0.698c0.338-0.417,2.105,0.358,1.032-1.238c0.206-1.32,0.744-2.401,2.095-2.894
		C124.476,49.67,123.188,51.328,123.12,52.985z"/>
	<path fill-rule="evenodd" clip-rule="evenodd" fill="#F7F7F7" d="M-26.811,52.849c1.223,0.438,2.498,0.771,3.654,1.344
		c1.311,0.65,1.803,1.805,1.436,3.288c-0.391,1.578-1.354,2.856-2.916,2.905c-2.436,0.076-3.993-1.869-5.723-3.266
		c-1.901-1.536-0.434-2.814,0.446-4.107C-28.916,52.263-27.868,52.452-26.811,52.849z"/>
	<path fill-rule="evenodd" clip-rule="evenodd" fill="#929292" d="M-26.811,52.849c-1.034,0.055-2.068,0.109-3.103,0.164
		c-0.323-1.647-0.647-3.295-0.97-4.942c1.955-0.074,2.756,1.105,3.066,2.82c-0.483,0.917-0.483,0.917,1.02,1.255
		C-26.826,52.38-26.831,52.614-26.811,52.849z"/>
</g>
</svg>
