<?xml version="1.0" encoding="utf-8"?>
<!-- Generator: Adobe Illustrator 16.0.0, SVG Export Plug-In . SVG Version: 6.00 Build 0)  -->
<!DOCTYPE svg PUBLIC "-//W3C//DTD SVG 1.1//EN" "http://www.w3.org/Graphics/SVG/1.1/DTD/svg11.dtd">
<svg version="1.1" id="Calque_1" xmlns="http://www.w3.org/2000/svg" xmlns:xlink="http://www.w3.org/1999/xlink" x="0px" y="0px"
	 width="460px" height="60.9px" viewBox="0 0 460 60.9" enable-background="new 0 0 460 60.9" xml:space="preserve">
<g id="RESO_SOC" transform="translate(-1026.002 -2273.8)">
	<path id="twitter-bird" d="M1194.361,2281.014c-1.902,3.053-4.333,5.741-7.178,7.942c0.028,0.587,0.043,1.251,0.043,1.989
		c-0.008,4.176-0.573,8.329-1.681,12.354c-1.14,4.168-2.868,8.152-5.131,11.834c-2.254,3.711-5.022,7.084-8.224,10.017
		c-3.356,3.017-7.248,5.375-11.474,6.957c-4.584,1.75-9.455,2.63-14.361,2.593c-7.879,0.028-15.573-2.386-22.023-6.91
		c1.138,0.138,2.281,0.209,3.427,0.212c6.551,0.04,12.893-2.302,17.846-6.59c-3.05-0.041-5.994-1.124-8.343-3.069
		c-2.436-1.953-4.207-4.612-5.071-7.611c2.15,0.445,4.378,0.356,6.486-0.258c-3.303-0.704-6.235-2.588-8.247-5.3
		c-2.173-2.79-3.328-6.238-3.275-9.773v-0.188c1.97,1.186,4.211,1.849,6.509,1.924c-1.979-1.42-3.581-3.301-4.668-5.481
		c-1.152-2.265-1.744-4.771-1.725-7.313c-0.018-2.699,0.65-5.358,1.941-7.729c3.521,4.662,7.984,8.53,13.101,11.353
		c5.069,2.814,10.717,4.431,16.509,4.721c-0.254-1.148-0.38-2.323-0.377-3.5c-0.081-4.036,1.431-7.941,4.208-10.872
		c5.089-5.617,13.768-6.046,19.385-0.958c0.448,0.406,0.868,0.841,1.259,1.302c3.241-0.686,6.331-1.95,9.121-3.734
		c-0.976,3.521-3.225,6.554-6.31,8.511C1188.969,2283.066,1191.756,2282.251,1194.361,2281.014z"/>
	<path id="facebook-rect" d="M1036.966,2273.8c-6.042-0.013-10.951,4.875-10.964,10.918c0,0.015,0,0.03,0,0.046v38.119
		c-0.013,6.042,4.876,10.951,10.918,10.964c0.016,0,0.031,0,0.046,0h20.66v-23.474h-6.207v-8.452h6.207v-7.222
		c0-5.674,3.668-10.883,12.117-10.883c1.988-0.006,3.975,0.104,5.95,0.329l-0.2,7.895c0,0-2.58-0.025-5.395-0.025
		c-3.048,0-3.535,1.4-3.535,3.735v6.172h9.172l-0.4,8.452h-8.771v23.476h8.521c6.043,0.013,10.951-4.875,10.964-10.918
		c0-0.017,0-0.03,0-0.046v-38.121c0.013-6.043-4.875-10.951-10.918-10.965c-0.015,0-0.03,0-0.046,0H1036.966L1036.966,2273.8z"/>
</g>
<g id="Icon_feather-instagram" transform="translate(-3.042 -3.042)">
	<path id="Tracé_65" fill="none" stroke="#000000" stroke-width="6.083" stroke-linecap="round" stroke-linejoin="round" d="
		M-77.634,6.083h27.212c7.512,0,13.601,6.089,13.601,13.601V46.9c0,7.512-6.089,13.601-13.601,13.601h-27.212
		c-7.511,0-13.6-6.089-13.6-13.601V19.687c0-7.512,6.089-13.601,13.6-13.601l0,0V6.083z"/>
	<path id="Tracé_66" fill="none" stroke="#000000" stroke-width="6.083" stroke-linecap="round" stroke-linejoin="round" d="
		M-53.146,31.578c0.882,5.945-3.223,11.479-9.169,12.361c-5.945,0.882-11.48-3.225-12.361-9.169
		c-0.882-5.945,3.223-11.48,9.169-12.361c1.059-0.157,2.135-0.157,3.192,0C-57.573,23.113-53.849,26.836-53.146,31.578z"/>
	<path id="Tracé_67" fill="none" stroke="#000000" stroke-width="6.083" stroke-linecap="round" stroke-linejoin="round" d="
		M-49.065,18.327L-49.065,18.327"/>
</g>
<path fill-rule="evenodd" clip-rule="evenodd" d="M230.028-134.369c3.935,0.023,7.72,0.77,11.377,2.262
	c2.999,1.223,5.62,2.992,8.1,5.047c3.875,3.211,6.405,7.296,8.211,11.935c2.343,6.018,2.423,12.118,0.491,18.176
	c-1.521,4.77-4.054,9.044-7.83,12.449c-2.135,1.926-4.416,3.67-7.024,4.934c-5.323,2.58-10.915,3.625-16.81,2.914
	c-5.855-0.706-11.059-2.898-15.608-6.689c-4.075-3.396-6.856-7.628-8.729-12.563c-2.263-5.962-2.322-11.983-0.413-17.952
	c1.514-4.733,3.986-9.021,7.732-12.414c2.356-2.134,4.908-4.024,7.839-5.325C221.393-133.383,225.594-134.411,230.028-134.369z
	 M230.006-78.943c14.639,0.001,26.901-11.717,26.866-26.484c-0.035-14.91-12.259-26.471-26.901-26.423
	c-14.727,0.047-26.82,11.447-26.834,26.459C203.123-90.484,215.331-78.991,230.006-78.943z"/>
<path fill-rule="evenodd" clip-rule="evenodd" d="M227.481-98.235c-0.323,1.237-0.649,2.396-0.926,3.566
	c-0.758,3.208-2.275,6.044-4.233,8.66c-0.215,0.289-0.593,0.456-0.895,0.68c-0.108-0.338-0.266-0.668-0.318-1.014
	c-0.587-3.847,0.121-7.562,1.12-11.259c0.652-2.415,1.212-4.855,1.776-7.293c0.087-0.376,0.055-0.828-0.069-1.195
	c-0.686-2.023-0.661-4.013,0.219-5.964c0.771-1.707,2.345-2.648,4.108-2.507c1.372,0.11,2.385,0.893,2.513,2.256
	c0.102,1.082,0.01,2.224-0.231,3.286c-0.379,1.668-0.959,3.29-1.447,4.934c-0.726,2.445,0.745,4.514,3.295,4.634
	c2.052,0.096,3.551-0.878,4.693-2.488c1.301-1.835,1.979-3.919,2.358-6.111c0.298-1.722,0.467-3.455,0-5.174
	c-0.803-2.96-2.696-4.805-5.658-5.646c-2.742-0.778-5.399-0.56-8.057,0.342c-4.357,1.479-7.415,6.762-6.398,11.26
	c0.202,0.892,0.744,1.729,1.237,2.525c0.304,0.491,0.485,0.923,0.315,1.485c-0.134,0.443-0.224,0.899-0.349,1.346
	c-0.236,0.84-0.662,1.018-1.457,0.654c-2.121-0.969-3.452-2.598-4.03-4.839c-1.101-4.266-0.245-8.123,2.678-11.406
	c2.645-2.971,5.994-4.761,9.962-5.317c3.197-0.448,6.358-0.32,9.37,0.925c6.089,2.515,9.053,7.188,8.144,13.931
	c-0.199,1.48-0.577,2.961-1.075,4.37c-1.048,2.963-3.113,5.109-5.825,6.634c-1.588,0.893-3.32,1.286-5.144,1.266
	C230.918-95.719,229.813-96.207,227.481-98.235z"/>
<path fill-rule="evenodd" clip-rule="evenodd" d="M321.547,2.113c8.768-0.162,17.487,0.505,26.169,1.722
	c3.368,0.473,5.97,2.089,8.093,4.758c1.575,1.979,2.015,4.248,2.359,6.586c1.645,11.154,1.52,22.288-0.212,33.436
	c-0.774,4.985-5.429,9.155-10.121,9.789c-12.618,1.706-25.267,2.416-37.972,1.443c-5.012-0.384-10.01-1-14.996-1.653
	c-2.705-0.354-4.792-1.913-6.649-3.9c-2.059-2.201-2.568-4.905-2.967-7.697c-1.342-9.396-1.424-18.81-0.357-28.235
	c0.203-1.798,0.499-3.588,0.795-5.375c0.737-4.459,5.167-8.528,9.327-8.989c6.397-0.708,12.807-1.327,19.221-1.853
	C316.657,1.946,319.109,2.113,321.547,2.113z M321.635,7.24c-8.518,0.043-16.99,0.678-25.416,1.925
	c-2.787,0.413-4.707,2.284-5.169,5.062c-1.871,11.259-1.871,22.521,0.003,33.78c0.457,2.745,2.427,4.691,5.167,5.088
	c7.401,1.07,14.844,1.698,22.319,1.864c9.616,0.213,19.178-0.514,28.696-1.854c2.761-0.389,4.74-2.271,5.206-5.043
	c1.893-11.258,1.906-22.523,0.008-33.784c-0.487-2.895-2.388-4.729-5.301-5.157C338.689,7.878,330.184,7.267,321.635,7.24z"/>
<path fill-rule="evenodd" clip-rule="evenodd" d="M337.822,31.152c-8.993,4.451-17.762,8.791-26.652,13.191
	c0-8.856,0-17.572,0-26.449C320.04,22.306,328.807,26.667,337.822,31.152z"/>
</svg>
