<?xml version="1.0" encoding="utf-8"?>
<!-- Generator: Adobe Illustrator 16.0.0, SVG Export Plug-In . SVG Version: 6.00 Build 0)  -->
<!DOCTYPE svg PUBLIC "-//W3C//DTD SVG 1.1//EN" "http://www.w3.org/Graphics/SVG/1.1/DTD/svg11.dtd">
<svg version="1.1" id="Calque_1" xmlns="http://www.w3.org/2000/svg" xmlns:xlink="http://www.w3.org/1999/xlink" x="0px" y="0px"
	 width="460px" height="60.9px" viewBox="-100.321 0 460 60.9" enable-background="new -100.321 0 460 60.9" xml:space="preserve">
<g id="RESO_SOC" transform="translate(-1026.002 -2273.8)">
	<path id="twitter-bird" d="M1194.361,2281.014c-1.902,3.053-4.333,5.741-7.178,7.942c0.028,0.587,0.043,1.251,0.043,1.99
		c-0.008,4.175-0.573,8.329-1.681,12.354c-1.14,4.168-2.868,8.152-5.131,11.834c-2.254,3.711-5.022,7.084-8.224,10.017
		c-3.356,3.016-7.248,5.375-11.474,6.957c-4.584,1.75-9.455,2.63-14.361,2.592c-7.879,0.029-15.573-2.385-22.023-6.91
		c1.138,0.138,2.281,0.209,3.427,0.212c6.551,0.04,12.893-2.302,17.846-6.59c-3.05-0.041-5.994-1.124-8.343-3.069
		c-2.436-1.953-4.207-4.612-5.071-7.611c2.15,0.445,4.378,0.356,6.486-0.258c-3.303-0.704-6.235-2.588-8.247-5.3
		c-2.173-2.79-3.328-6.238-3.275-9.773v-0.189c1.97,1.186,4.211,1.849,6.509,1.924c-1.979-1.42-3.581-3.301-4.668-5.481
		c-1.152-2.265-1.744-4.772-1.725-7.313c-0.018-2.699,0.65-5.358,1.941-7.729c3.521,4.662,7.984,8.53,13.101,11.352
		c5.069,2.815,10.717,4.431,16.509,4.721c-0.254-1.149-0.38-2.323-0.377-3.5c-0.081-4.036,1.431-7.942,4.208-10.872
		c5.089-5.617,13.768-6.046,19.385-0.958c0.448,0.406,0.868,0.841,1.259,1.302c3.241-0.686,6.331-1.951,9.121-3.735
		c-0.976,3.521-3.225,6.554-6.31,8.511C1188.969,2283.067,1191.756,2282.251,1194.361,2281.014z"/>
	<path id="facebook-rect" d="M1036.966,2273.8c-6.042-0.013-10.951,4.875-10.964,10.918c0,0.015,0,0.03,0,0.046v38.119
		c-0.013,6.042,4.876,10.951,10.918,10.964c0.016,0,0.031,0,0.046,0h20.66v-23.474h-6.207v-8.452h6.207v-7.222
		c0-5.673,3.668-10.882,12.117-10.882c1.988-0.006,3.975,0.104,5.95,0.329l-0.2,7.894c0,0-2.58-0.025-5.394-0.025
		c-3.048,0-3.535,1.4-3.535,3.735v6.172h9.172l-0.4,8.452h-8.771v23.475h8.521c6.043,0.013,10.951-4.875,10.964-10.918
		c0-0.016,0-0.03,0-0.046v-38.121c0.013-6.043-4.875-10.951-10.918-10.964c-0.015,0-0.03,0-0.046,0H1036.966z"/>
</g>
<g id="Icon_feather-instagram" transform="translate(-3.042 -3.042)">
	<path id="Tracé_65" fill="none" stroke="#000000" stroke-width="6.083" stroke-linecap="round" stroke-linejoin="round" d="
		M-77.634,6.083h27.212c7.512,0,13.601,6.089,13.601,13.6V46.9c0,7.512-6.089,13.601-13.601,13.601h-27.212
		c-7.511,0-13.6-6.089-13.6-13.601V19.687c0-7.511,6.089-13.6,13.6-13.6l0,0V6.083z"/>
	<path id="Tracé_66" fill="none" stroke="#000000" stroke-width="6.083" stroke-linecap="round" stroke-linejoin="round" d="
		M-53.146,31.578c0.882,5.945-3.223,11.479-9.169,12.361c-5.945,0.882-11.48-3.224-12.361-9.169
		c-0.882-5.945,3.223-11.48,9.169-12.361c1.059-0.157,2.135-0.157,3.192,0C-57.573,23.113-53.849,26.836-53.146,31.578z"/>
	<path id="Tracé_67" fill="none" stroke="#000000" stroke-width="6.083" stroke-linecap="round" stroke-linejoin="round" d="
		M-49.065,18.327L-49.065,18.327"/>
</g>
<image overflow="visible" width="452" height="452" xlink:href="7698F453.png"  transform="matrix(0.1416 0 0 0.1416 191.6794 -0.9998)">
</image>
<image overflow="visible" width="452" height="452" xlink:href="7698F451.png"  transform="matrix(0.1901 0 0 0.1901 278.6794 -8.9421)">
</image>
</svg>
