<svg xmlns="http://www.w3.org/2000/svg" width="168.359" height="60.901" viewBox="0 0 168.359 60.901">
  <g id="RESO_SOC" data-name="RESO SOC" transform="translate(-1026.002 -2273.8)">
    <path id="twitter-bird" d="M70.028,7.214a30.3,30.3,0,0,1-7.178,7.942q.043.881.043,1.991A46.908,46.908,0,0,1,61.213,29.5a45.556,45.556,0,0,1-5.131,11.834,45.907,45.907,0,0,1-8.224,10.017,36.117,36.117,0,0,1-11.473,6.957A39.424,39.424,0,0,1,22.023,60.9,38.1,38.1,0,0,1,0,53.989a29.04,29.04,0,0,0,3.427.212,27.012,27.012,0,0,0,17.845-6.589,13.361,13.361,0,0,1-8.343-3.07,15.133,15.133,0,0,1-5.071-7.611,13.442,13.442,0,0,0,6.487-.258,13.87,13.87,0,0,1-8.248-5.3A15.535,15.535,0,0,1,2.822,21.6V21.41a13.473,13.473,0,0,0,6.509,1.924,14.952,14.952,0,0,1-4.668-5.481,15.853,15.853,0,0,1-1.725-7.314A15.937,15.937,0,0,1,4.88,2.811a41.582,41.582,0,0,0,13.1,11.351,37.893,37.893,0,0,0,16.509,4.721,16.054,16.054,0,0,1-.377-3.5A15.358,15.358,0,0,1,38.32,4.511a13.724,13.724,0,0,1,20.644.344,27.5,27.5,0,0,0,9.121-3.736,14.738,14.738,0,0,1-6.31,8.511,27.247,27.247,0,0,0,8.253-2.416Z" transform="translate(1124.333 2273.8)"/>
    <path id="facebook-rect" d="M10.964,0A10.941,10.941,0,0,0,0,10.964V49.083A10.941,10.941,0,0,0,10.964,60.047h20.66V36.573H25.417V28.121h6.207V20.9c0-5.673,3.668-10.882,12.117-10.882a51.194,51.194,0,0,1,5.95.329l-.2,7.893s-2.58-.025-5.394-.025c-3.047,0-3.535,1.4-3.535,3.735v6.172h9.172l-.4,8.452H40.563V60.049h8.522A10.941,10.941,0,0,0,60.049,49.085V10.964A10.941,10.941,0,0,0,49.085,0Z" transform="translate(1026.002 2273.8)"/>
  </g>
</svg>
